<?xml version="1.0" encoding="UTF-8" standalone="no"?>
<svg xmlns:xlink="http://www.w3.org/1999/xlink" height="30.0px" width="29.95px" xmlns="http://www.w3.org/2000/svg">
  <g transform="matrix(1, 0, 0, 1, 14.95, 15.0)">
    <path d="M8.8 -6.55 Q-3.25 -6.2 -6.85 -6.55 -8.75 -6.7 -12.05 -8.75 -13.7 -9.75 -14.95 -10.7 L-12.2 -12.55 Q-8.95 -14.5 -6.85 -14.8 L2.35 -15.0 8.8 -14.85 8.8 -6.55 M15.0 -14.85 L15.0 -6.55 10.75 -6.55 10.75 -14.85 15.0 -14.85 M8.8 -4.15 L8.8 4.15 Q-3.25 4.5 -6.85 4.15 -8.75 3.95 -12.05 1.95 L-14.95 0.0 -12.2 -1.9 Q-8.95 -3.8 -6.85 -4.1 -4.55 -4.4 2.35 -4.3 L8.8 -4.15 M15.0 -4.15 L15.0 4.15 10.75 4.15 10.75 -4.15 15.0 -4.15 M15.0 6.55 L15.0 14.85 10.75 14.85 10.75 6.55 15.0 6.55 M8.8 14.85 Q-3.25 15.15 -6.85 14.85 -8.75 14.65 -12.05 12.65 L-14.95 10.65 Q-13.75 9.75 -12.2 8.8 -8.95 6.9 -6.85 6.6 -4.55 6.3 2.35 6.4 L8.8 6.55 8.8 14.85" fill="#008800" fill-rule="evenodd" stroke="none"/>
  </g>
</svg>
