<?xml version="1.0" encoding="UTF-8" standalone="no"?>
<svg xmlns:xlink="http://www.w3.org/1999/xlink" height="30.0px" width="29.9px" xmlns="http://www.w3.org/2000/svg">
  <g transform="matrix(1, 0, 0, 1, 15.4, 15.0)">
    <path d="M3.6 -14.45 L4.55 -14.15 Q5.15 -12.55 6.3 -11.9 7.85 -11.2 9.1 -11.5 L9.85 -10.85 Q9.65 -9.1 10.55 -8.1 11.6 -6.75 12.95 -6.6 L13.4 -5.65 Q12.45 -4.3 12.9 -2.85 13.1 -1.35 14.5 -0.5 L14.5 0.5 Q13.1 1.35 12.9 2.85 12.45 4.25 13.4 5.65 L12.95 6.55 Q11.6 6.75 10.55 8.05 9.65 9.1 9.85 10.85 L9.1 11.45 Q7.85 11.15 6.3 11.85 5.15 12.5 4.55 14.1 L3.6 14.4 Q2.4 13.6 0.85 13.6 -0.6 13.85 -1.65 15.0 L-2.65 14.9 Q-3.45 13.55 -4.8 13.05 L-7.65 13.25 -8.55 12.75 Q-8.75 11.0 -9.75 10.2 L-11.0 9.45 -12.45 9.25 -13.05 8.45 Q-12.45 6.85 -13.15 5.6 -13.75 4.15 -15.15 3.6 L-15.4 2.65 Q-14.2 1.45 -14.3 0.0 -14.2 -1.5 -15.4 -2.65 L-15.15 -3.65 Q-13.75 -4.1 -13.15 -5.6 -12.45 -6.9 -13.05 -8.45 L-12.45 -9.25 -11.0 -9.5 -9.75 -10.2 Q-8.75 -11.0 -8.55 -12.8 L-7.65 -13.25 -4.8 -13.05 Q-3.45 -13.5 -2.65 -14.9 L-1.65 -15.0 Q-0.65 -13.85 0.85 -13.6 2.4 -13.55 3.6 -14.45 M6.35 -8.9 Q5.35 -10.1 2.75 -9.85 1.1 -9.7 -1.1 -8.3 -3.35 -6.8 -5.2 -4.65 -9.75 0.75 -8.45 5.95 -8.0 8.0 -6.2 8.95 -4.85 9.75 -2.95 9.75 -0.6 9.75 2.3 6.95 L4.7 4.2 4.2 3.25 2.05 5.25 Q-0.45 7.25 -1.9 7.25 -4.0 7.25 -4.8 4.85 -5.6 2.2 -3.6 -1.6 -2.0 -4.55 -0.05 -6.4 1.8 -8.15 2.95 -7.8 3.5 -7.7 3.4 -7.25 L2.9 -6.15 Q2.1 -4.45 3.05 -3.75 L5.7 -3.65 Q7.0 -4.6 7.0 -6.35 7.0 -8.15 6.35 -8.9" fill="#008800" fill-rule="evenodd" stroke="none"/>
  </g>
</svg>
