<?xml version="1.0" encoding="UTF-8" standalone="no"?>
<svg xmlns:xlink="http://www.w3.org/1999/xlink" height="11.8px" width="7.15px" xmlns="http://www.w3.org/2000/svg">
  <g transform="matrix(1, 0, 0, 1, 3.55, 5.9)">
    <path d="M-0.6 -1.5 L-0.8 -1.2 -1.75 0.3 Q-2.25 1.1 -2.25 1.75 -2.25 2.4 -1.8 2.9 -1.35 3.4 -0.6 3.6 L-0.6 -1.5 M0.65 -3.9 L1.75 -1.95 3.0 0.3 Q3.6 1.55 3.6 2.55 3.6 3.95 2.55 4.9 1.45 5.9 0.0 5.9 -1.5 5.9 -2.55 4.9 -3.55 3.95 -3.55 2.55 -3.55 1.55 -2.95 0.25 L-1.7 -2.0 -0.6 -3.9 Q-0.15 -4.95 -0.15 -5.7 L0.0 -5.9 0.1 -5.85 0.15 -5.7 Q0.15 -4.95 0.65 -3.9" fill="#008800" fill-rule="evenodd" stroke="none"/>
  </g>
</svg>
