<?xml version="1.0" encoding="UTF-8" standalone="no"?>
<svg xmlns:xlink="http://www.w3.org/1999/xlink" height="222.05px" width="125.65px" xmlns="http://www.w3.org/2000/svg">
  <g transform="matrix(1, 0, 0, 1, -82.0, -25.05)">
    <path d="M171.45 34.3 L174.1 38.1 Q176.0 39.05 177.9 42.25 179.25 44.55 180.2 47.15 181.8 51.65 180.1 58.7 179.25 62.2 178.05 64.8 177.4 60.45 174.65 57.35 L172.55 55.25 171.0 53.9 173.9 51.5 Q175.55 49.7 175.45 48.3 175.3 46.3 174.3 44.85 172.95 42.8 170.3 42.65 L169.2 42.65 Q168.15 42.7 165.65 43.6 L162.55 44.4 162.25 44.35 159.15 40.75 Q156.5 37.4 154.75 37.3 L153.9 37.4 152.05 38.3 150.35 39.2 148.2 40.3 Q147.25 40.85 146.65 40.8 L146.05 40.6 144.7 39.8 Q142.85 38.75 142.15 38.65 141.3 38.6 139.8 39.25 138.8 39.75 136.25 42.45 L133.6 45.25 Q131.5 46.85 129.45 46.7 128.15 46.6 127.2 45.6 125.5 43.75 125.05 40.85 124.65 38.05 125.55 35.95 126.35 34.2 127.7 33.15 127.3 34.95 128.5 36.05 129.85 37.25 131.6 37.4 134.05 37.55 136.05 35.65 140.85 30.85 142.65 30.55 L143.85 30.5 146.2 31.1 Q147.6 31.7 148.15 31.75 L149.5 31.3 151.45 29.0 Q154.2 25.1 155.5 25.05 L155.8 25.05 Q157.3 25.1 159.3 26.75 L160.55 27.9 Q161.25 28.55 162.0 28.85 164.65 30.0 166.35 30.35 169.25 30.95 171.45 34.3 M169.0 44.5 L169.3 44.5 Q172.05 44.75 172.75 47.75 173.55 50.95 169.35 52.9 169.15 52.9 168.9 53.3 168.55 53.8 169.2 54.2 172.35 56.45 173.65 57.9 177.3 61.9 176.9 66.65 175.8 63.05 173.4 59.8 170.65 56.4 169.65 56.0 L169.3 55.9 Q168.8 55.85 168.65 56.25 168.5 56.6 168.9 56.9 L170.1 58.0 172.45 60.55 Q174.55 62.9 176.7 68.05 L176.4 69.2 Q174.75 64.95 172.6 62.55 170.9 60.55 169.45 59.9 L169.25 59.85 Q168.8 59.8 168.75 60.35 168.7 60.95 169.35 61.4 L171.7 63.45 Q173.7 65.8 176.05 70.2 L176.0 70.25 Q175.8 70.8 175.95 71.3 L174.25 70.65 Q174.2 70.95 174.45 71.35 177.8 74.3 175.75 78.25 173.8 82.1 169.55 81.8 L168.8 81.7 Q163.7 89.45 156.9 93.15 156.2 93.5 156.25 93.8 156.25 94.05 156.9 94.1 158.95 94.3 161.9 92.55 161.2 96.25 156.25 98.9 151.65 101.35 147.5 101.0 145.65 100.9 144.55 100.05 L144.8 100.1 148.1 99.65 Q150.4 99.1 150.3 98.7 L150.1 98.6 148.95 98.65 146.8 98.65 Q142.7 98.35 137.75 95.75 128.85 91.05 125.15 80.6 121.65 70.65 124.45 60.5 126.2 54.25 130.55 48.05 132.35 47.9 134.65 46.3 L137.35 43.4 Q139.8 40.7 140.6 40.3 L141.65 40.15 Q143.1 40.25 144.95 41.6 L146.85 42.15 Q148.6 42.3 151.2 41.05 152.35 40.5 153.65 40.65 157.1 40.9 159.65 44.35 160.5 45.45 161.85 45.55 L164.55 45.15 169.0 44.5 M168.5 64.15 Q168.3 64.6 168.9 65.05 L169.0 65.15 170.75 66.5 172.0 68.05 172.95 69.1 173.15 68.9 Q173.25 68.5 172.75 67.45 L171.6 65.7 Q170.8 64.7 169.3 63.8 L169.15 63.8 Q168.7 63.75 168.5 64.15 M168.35 68.0 Q168.2 68.45 168.55 68.7 L169.2 69.3 Q169.8 70.0 169.8 70.45 169.8 71.05 170.35 71.05 171.0 71.15 171.0 70.3 171.0 69.6 170.35 68.75 L169.2 67.7 168.95 67.6 Q168.55 67.55 168.35 68.0 M169.05 94.45 Q170.2 99.35 166.9 103.6 165.65 105.2 163.6 106.45 L159.7 108.5 Q159.45 108.6 159.65 109.75 163.55 124.85 165.65 141.5 L166.05 146.15 166.6 150.8 Q166.9 152.25 167.8 152.35 168.3 152.4 169.7 151.45 L171.55 150.15 174.7 147.85 179.25 143.75 180.95 155.8 180.85 155.85 Q176.8 162.65 165.45 168.3 156.05 172.95 146.0 173.75 136.0 174.55 127.45 171.3 127.85 170.05 127.6 168.35 L128.2 168.4 Q130.1 168.6 130.85 166.95 131.45 165.6 131.1 163.7 130.85 162.45 129.75 161.35 L127.6 159.55 123.75 157.0 Q121.7 155.45 121.05 153.4 120.4 151.3 121.45 148.55 L121.4 150.85 121.2 150.75 Q121.0 150.6 121.1 151.7 121.25 152.8 121.6 153.05 L122.1 153.35 122.2 153.45 Q129.7 158.1 140.1 158.75 L147.9 158.5 150.2 158.3 Q151.8 158.05 152.0 157.15 152.3 155.85 152.15 153.6 L151.9 149.95 151.35 139.95 Q150.4 126.5 147.75 112.0 L147.55 110.6 Q147.35 109.6 146.9 109.45 L144.0 108.55 141.05 107.7 Q136.85 106.05 133.75 103.2 130.25 99.9 129.4 95.95 129.25 95.2 128.75 94.8 128.3 94.4 128.55 95.55 129.7 101.1 134.05 105.35 136.3 107.5 139.85 109.25 141.15 109.9 143.6 110.55 L146.95 111.55 Q150.75 132.6 151.05 153.2 151.1 155.0 150.6 155.45 L148.35 156.05 142.25 156.5 Q137.7 156.65 132.25 155.4 126.95 154.25 122.35 151.5 122.65 138.4 120.8 124.95 123.6 123.25 126.15 121.2 126.5 120.9 126.1 119.8 125.7 118.75 125.35 119.0 122.85 121.05 120.0 122.75 L119.8 122.85 115.8 124.85 Q110.5 127.2 105.1 128.0 L105.05 128.05 Q103.25 125.8 101.15 124.2 100.95 124.0 101.1 125.1 101.25 126.2 101.6 126.45 108.9 132.15 112.25 145.3 108.25 146.1 105.75 150.45 104.0 153.45 102.8 158.65 L101.8 158.15 Q99.85 157.15 97.2 155.05 89.55 148.8 84.65 138.45 82.3 133.45 82.05 129.3 81.75 124.55 84.2 120.3 90.7 109.35 104.7 102.15 116.55 96.05 131.2 93.75 L131.4 93.75 131.55 93.65 Q134.2 95.7 137.45 97.1 138.65 99.9 141.25 101.5 143.6 102.95 146.85 103.2 153.2 103.7 158.7 100.0 163.1 97.05 164.35 92.95 L169.05 94.45 M173.3 96.0 Q187.05 101.3 196.7 110.8 202.95 116.9 206.25 123.7 L207.25 125.75 Q207.8 127.15 207.6 127.95 L206.7 130.9 Q202.4 144.25 193.35 152.75 191.0 149.3 187.85 147.6 184.2 145.6 180.6 146.6 L180.1 143.95 Q179.65 141.45 182.4 135.25 184.4 130.65 187.5 127.7 187.85 127.4 187.45 126.3 187.0 125.25 186.75 125.5 183.0 129.05 180.95 134.6 179.85 137.45 179.45 139.55 L176.25 117.5 176.25 117.3 Q176.15 116.5 175.7 116.1 175.25 115.75 175.4 116.85 L178.85 141.1 174.6 145.15 Q169.1 149.65 167.35 149.95 165.4 129.35 160.7 110.65 163.85 109.0 165.2 108.05 167.55 106.35 168.95 103.95 171.15 100.15 169.9 94.75 171.55 95.3 173.3 96.0 M186.85 164.95 L186.95 164.95 188.65 165.45 Q190.15 166.0 190.1 166.5 189.85 168.45 186.85 169.15 L183.05 169.4 182.2 158.85 180.8 149.05 Q184.35 147.8 188.05 149.75 191.1 151.4 193.3 154.6 193.75 157.3 191.6 159.8 189.3 162.45 186.2 162.6 185.9 162.65 186.15 163.75 186.4 164.85 186.75 164.9 L186.85 164.95 M181.3 158.7 Q183.4 180.25 181.3 196.65 180.45 203.3 178.45 212.15 L174.8 227.45 174.25 229.9 Q172.65 231.15 169.35 231.75 165.4 232.55 159.85 231.85 L151.25 230.25 152.05 210.45 Q152.25 198.2 150.35 189.55 L152.55 185.05 Q154.3 181.6 155.55 179.9 155.8 179.55 155.4 178.5 154.95 177.45 154.75 177.7 151.6 182.15 148.8 188.65 147.1 192.6 144.35 200.35 L140.45 212.4 Q138.1 219.65 136.0 224.25 133.3 230.15 130.5 233.3 129.0 234.95 126.05 235.65 125.95 235.6 125.95 235.7 L118.75 236.1 Q114.7 235.8 110.4 233.5 L108.05 232.0 107.35 231.4 107.25 230.1 Q107.3 225.55 109.15 219.05 L112.5 208.25 Q116.05 195.65 118.6 181.7 L119.4 177.2 119.35 176.65 Q123.25 177.35 123.05 173.1 L124.25 173.3 Q125.5 173.4 126.35 172.9 L126.5 173.05 Q135.65 176.95 146.45 176.05 156.35 175.2 166.1 170.6 176.8 165.55 181.3 158.7 M128.65 47.8 Q127.0 50.2 125.45 53.15 124.3 50.9 124.2 49.65 124.05 48.1 124.5 46.95 124.95 45.8 125.65 45.85 126.05 45.85 126.4 46.3 127.4 47.4 128.65 47.8 M135.75 48.05 L135.25 48.15 131.25 50.25 Q130.8 50.45 130.85 50.65 130.85 50.85 131.3 50.9 L135.4 51.0 Q135.9 51.05 136.2 50.7 136.55 50.35 136.5 49.8 L136.45 48.8 Q136.35 48.05 135.75 48.05 M154.65 48.9 L153.85 49.8 Q153.1 50.75 153.3 51.05 L154.2 51.55 Q155.3 52.05 156.0 52.5 L158.05 53.85 159.45 54.65 159.5 54.65 Q159.95 53.45 158.0 50.95 L156.0 48.7 155.5 48.5 Q154.95 48.45 154.65 48.9 M153.9 57.45 Q153.15 57.4 152.55 58.35 151.9 59.25 151.75 60.65 151.6 62.05 152.05 63.1 152.45 64.15 153.2 64.2 L153.25 64.2 Q154.0 64.3 154.65 63.35 155.25 62.45 155.4 61.05 155.55 59.65 155.1 58.6 154.65 57.55 153.9 57.45 M142.65 57.7 L140.35 61.55 Q139.3 63.1 136.05 66.5 L135.75 67.25 135.9 68.05 137.85 71.55 Q138.3 72.15 139.1 72.25 L140.25 72.05 Q140.65 72.0 140.75 71.7 140.9 71.4 140.7 71.0 L139.05 68.4 138.85 67.6 139.05 66.75 141.4 62.9 Q142.85 60.6 143.8 58.0 144.2 57.05 143.65 56.95 L143.6 56.95 Q143.1 56.85 142.65 57.7 M150.5 72.6 L151.0 74.25 Q151.15 74.6 150.75 75.05 L149.95 75.5 Q142.95 77.55 139.55 77.65 L138.2 77.65 133.05 76.75 130.45 76.05 129.8 75.6 Q129.55 75.25 129.6 74.85 L129.7 74.15 Q129.7 73.65 129.5 73.65 L129.1 73.9 127.1 76.0 Q126.45 76.75 126.9 77.6 L128.8 81.05 129.1 81.4 Q129.3 81.4 129.3 80.95 L129.35 80.45 Q129.35 79.65 130.05 79.75 L130.3 79.8 133.35 81.9 Q137.0 84.0 140.05 84.25 L140.1 84.25 Q143.15 84.45 148.4 81.95 L153.0 79.4 153.4 79.35 Q154.1 79.45 154.45 79.95 L154.3 82.25 154.65 82.55 155.05 82.15 156.3 77.7 156.25 76.85 155.75 76.15 151.0 72.25 150.65 72.1 Q150.35 72.0 150.5 72.6 M132.8 56.0 Q132.05 55.95 131.45 56.85 130.8 57.8 130.65 59.2 130.5 60.6 130.95 61.65 131.35 62.7 132.1 62.75 L132.15 62.75 Q132.9 62.85 133.55 61.9 134.15 60.95 134.3 59.55 134.45 58.15 134.05 57.1 133.6 56.1 132.85 56.0 L132.8 56.0 M139.95 78.65 Q143.95 78.65 150.35 76.55 L151.5 76.4 Q152.2 76.5 152.8 76.95 153.4 77.5 153.0 78.1 152.7 78.5 152.1 78.75 146.4 81.25 144.3 81.8 L139.25 82.1 136.1 81.5 130.15 78.95 Q129.45 78.75 129.25 77.75 129.1 76.9 130.15 77.0 L130.3 77.0 133.05 77.7 138.6 78.6 139.95 78.65 M136.05 85.95 Q136.0 86.15 136.4 86.35 L138.05 87.35 139.35 87.7 141.05 87.55 141.8 87.15 Q142.1 86.8 142.0 86.4 141.9 85.65 141.0 85.55 L136.55 85.75 136.05 85.95 M120.85 145.8 Q119.6 148.95 120.05 152.4 120.65 156.9 124.0 159.3 L127.0 161.2 129.85 163.35 130.3 163.95 Q130.3 165.3 128.95 165.95 126.55 167.05 122.55 164.25 120.5 162.8 117.35 159.65 117.0 159.3 117.1 160.35 117.2 161.45 117.5 161.75 120.35 164.6 122.35 166.0 124.6 167.55 126.75 168.15 126.85 169.9 125.45 170.55 124.0 171.25 121.65 170.55 117.6 169.35 113.4 164.8 113.1 164.45 113.2 165.5 113.3 166.55 113.55 166.85 117.85 171.55 122.05 172.85 121.75 174.6 119.7 174.5 117.95 174.45 115.25 173.15 109.6 170.4 105.95 164.75 104.6 162.6 103.8 160.3 104.95 155.4 106.55 152.6 109.05 148.3 113.15 147.6 L113.2 147.6 113.4 147.5 Q115.55 146.05 117.55 145.55 119.5 145.1 120.85 145.8 M125.45 238.15 Q124.55 240.85 121.8 243.0 118.9 245.25 114.35 246.7 109.3 248.35 107.1 243.15 104.9 238.0 108.95 234.85 L109.1 234.7 Q111.55 236.45 114.6 237.4 118.1 238.55 121.9 238.45 L125.45 238.15 M152.55 232.7 Q162.8 234.9 169.2 234.2 173.25 233.8 174.7 232.1 L174.95 232.35 Q182.65 235.2 186.9 239.25 L187.2 238.95 Q187.4 238.7 187.5 239.35 L187.0 239.3 186.9 239.25 186.1 239.75 Q184.55 240.6 181.9 240.95 176.7 241.75 170.6 240.25 164.85 238.85 160.1 235.85 L159.9 235.9 158.8 237.1 156.6 237.25 154.25 236.4 Q152.8 235.8 152.55 234.9 L152.55 232.7" fill="#008800" fill-rule="evenodd" stroke="none"/>
  </g>
</svg>
