<?xml version="1.0" encoding="UTF-8" standalone="no"?>
<svg xmlns:xlink="http://www.w3.org/1999/xlink" height="30.0px" width="30.2px" xmlns="http://www.w3.org/2000/svg">
  <g transform="matrix(1, 0, 0, 1, 15.1, 15.0)">
    <path d="M3.0 -11.0 Q1.8 -12.2 0.0 -12.2 -1.75 -12.2 -3.0 -11.0 -4.25 -9.7 -4.25 -7.95 -4.25 -6.15 -3.0 -4.9 -1.75 -3.7 0.0 -3.7 1.8 -3.7 3.0 -4.9 4.25 -6.15 4.25 -7.95 4.25 -9.7 3.0 -11.0 M0.0 -15.0 Q2.95 -15.0 5.05 -12.9 7.1 -10.85 7.1 -7.85 L6.8 -5.75 8.7 -5.75 Q10.0 -5.5 10.95 -4.5 11.95 -3.5 12.2 -2.25 L15.05 11.05 Q15.3 12.6 14.35 13.8 13.35 15.0 11.7 15.0 L-11.75 15.0 Q-13.4 15.0 -14.35 13.8 -15.35 12.6 -15.05 11.05 L-12.2 -2.25 Q-12.0 -3.5 -11.0 -4.5 -10.0 -5.5 -8.75 -5.75 L-6.8 -5.75 Q-7.15 -6.75 -7.15 -7.85 -7.15 -10.85 -5.05 -12.9 -2.95 -15.0 0.0 -15.0" fill="#008800" fill-rule="evenodd" stroke="none"/>
  </g>
</svg>
